<svg width="48" height="50" viewBox="0 0 48 50" fill="none" xmlns="http://www.w3.org/2000/svg">
<path d="M36.3594 22.7906C36.2356 22.5174 36.0356 22.2856 35.7834 22.1232C35.5312 21.9608 35.2375 21.8746 34.9375 21.875H28.6875V1.5625C28.6875 0.7 27.9875 0 27.125 0H20.875C20.0125 0 19.3125 0.7 19.3125 1.5625V21.875H13.0625C12.7627 21.8752 12.4692 21.9617 12.2171 22.124C11.965 22.2864 11.7649 22.5177 11.6406 22.7906C11.3844 23.35 11.4844 24.0031 11.8875 24.4656L22.825 36.9656C22.9713 37.1335 23.1518 37.2681 23.3545 37.3603C23.5572 37.4525 23.7773 37.5001 24 37.5C24.45 37.5 24.8781 37.3031 25.175 36.9656L36.1125 24.4656C36.5187 24.0063 36.6125 23.35 36.3594 22.7906Z" fill="#CCCCEF"/>
<path d="M41.1875 34.375V43.75H6.8125V34.375H0.5625V46.875C0.5625 48.6031 1.9625 50 3.6875 50H44.3125C46.0406 50 47.4375 48.6031 47.4375 46.875V34.375H41.1875Z" fill="#CCCCEF"/>
</svg>
